<?xml version="1.0" encoding="UTF-8" standalone="no"?>
<!DOCTYPE svg PUBLIC "-//W3C//DTD SVG 1.1//EN"
 "http://www.w3.org/Graphics/SVG/1.1/DTD/svg11.dtd">
<!-- Generated by graphviz version 2.40.1 (20161225.0304)
 -->
<!-- Title: G Pages: 1 -->
<svg width="133pt" height="227pt"
 viewBox="0.00 0.00 132.60 227.00" xmlns="http://www.w3.org/2000/svg" xmlns:xlink="http://www.w3.org/1999/xlink">
<g id="graph0" class="graph" transform="scale(1 1) rotate(0) translate(4 223)">
<title>G</title>
<polygon fill="#ffffff" stroke="transparent" points="-4,4 -4,-223 128.599,-223 128.599,4 -4,4"/>
<!-- A0 -->
<g id="node1" class="node">
<title>A0</title>
<polygon fill="none" stroke="#000000" points="52.977,-178.5 52.977,-218.5 114.321,-218.5 114.321,-178.5 52.977,-178.5"/>
<text text-anchor="middle" x="83.649" y="-205.5" font-family="Helvetica,sans-Serif" font-size="10.00" fill="#000000">Subject</text>
<polyline fill="none" stroke="#000000" points="52.977,-198.5 114.321,-198.5 "/>
<text text-anchor="middle" x="83.649" y="-185.5" font-family="Helvetica,sans-Serif" font-size="10.00" fill="#000000">+do()</text>
</g>
<!-- A1 -->
<g id="node2" class="node">
<title>A1</title>
<polygon fill="none" stroke="#000000" points="0,-87.5 0,-127.5 93.298,-127.5 93.298,-87.5 0,-87.5"/>
<text text-anchor="middle" x="46.649" y="-114.5" font-family="Helvetica,sans-Serif" font-size="10.00" fill="#000000">Proxy</text>
<polyline fill="none" stroke="#000000" points="0,-107.5 93.298,-107.5 "/>
<text text-anchor="middle" x="46.649" y="-94.5" font-family="Helvetica,sans-Serif" font-size="10.00" fill="#000000">+_real_subject</text>
</g>
<!-- A0&#45;&gt;A1 -->
<g id="edge1" class="edge">
<title>A0&#45;&gt;A1</title>
<path fill="none" stroke="#000000" d="M71.6248,-168.9269C66.1318,-155.4171 59.7671,-139.7633 54.8375,-127.6394"/>
<polygon fill="none" stroke="#000000" points="68.4287,-170.3589 75.4375,-178.3042 74.9132,-167.7223 68.4287,-170.3589"/>
</g>
<!-- A2 -->
<g id="node3" class="node">
<title>A2</title>
<polygon fill="none" stroke="#000000" points="42.699,-.5 42.699,-36.5 124.599,-36.5 124.599,-.5 42.699,-.5"/>
<text text-anchor="middle" x="83.649" y="-15.5" font-family="Helvetica,sans-Serif" font-size="10.00" fill="#000000">RealSubject</text>
</g>
<!-- A0&#45;&gt;A2 -->
<g id="edge2" class="edge">
<title>A0&#45;&gt;A2</title>
<path fill="none" stroke="#000000" d="M93.5748,-168.5992C97.2026,-156.1891 100.8553,-141.5484 102.649,-128 105.0406,-109.9354 105.1067,-105.0557 102.649,-87 100.2687,-69.5131 94.6192,-50.1885 90.0954,-36.5356"/>
<polygon fill="none" stroke="#000000" points="90.1472,-167.8398 90.5746,-178.426 96.8421,-169.8839 90.1472,-167.8398"/>
</g>
<!-- A1&#45;&gt;A2 -->
<g id="edge3" class="edge">
<title>A1&#45;&gt;A2</title>
<path fill="none" stroke="#000000" stroke-dasharray="5,2" d="M55.0449,-87.3045C60.108,-75.1256 66.6278,-59.443 72.1637,-46.1267"/>
<polygon fill="#000000" stroke="#000000" points="76.165,-36.5021 76.4814,-47.4634 74.2456,-41.119 72.3261,-45.7359 72.3261,-45.7359 72.3261,-45.7359 74.2456,-41.119 68.1709,-44.0085 76.165,-36.5021 76.165,-36.5021"/>
<text text-anchor="middle" x="54.1983" y="-64.3224" font-family="Helvetica,sans-Serif" font-size="10.00" fill="#000000">uses </text>
</g>
</g>
</svg>
