<?xml version="1.0" encoding="UTF-8" standalone="no"?>
<!DOCTYPE svg PUBLIC "-//W3C//DTD SVG 1.1//EN"
 "http://www.w3.org/Graphics/SVG/1.1/DTD/svg11.dtd">
<!-- Generated by graphviz version 2.40.1 (20161225.0304)
 -->
<!-- Title: G Pages: 1 -->
<svg width="264pt" height="230pt"
 viewBox="0.00 0.00 263.79 230.00" xmlns="http://www.w3.org/2000/svg" xmlns:xlink="http://www.w3.org/1999/xlink">
<g id="graph0" class="graph" transform="scale(1 1) rotate(0) translate(4 226)">
<title>G</title>
<polygon fill="#ffffff" stroke="transparent" points="-4,4 -4,-226 259.7865,-226 259.7865,4 -4,4"/>
<!-- A0 -->
<g id="node1" class="node">
<title>A0</title>
<polygon fill="#fff8dc" stroke="#000000" points="96.6835,-222 -.2285,-222 -.2285,-178 102.6835,-178 102.6835,-216 96.6835,-222"/>
<polyline fill="none" stroke="#000000" points="96.6835,-222 96.6835,-216 "/>
<polyline fill="none" stroke="#000000" points="102.6835,-216 96.6835,-216 "/>
<text text-anchor="middle" x="51.2275" y="-209" font-family="Helvetica,sans-Serif" font-size="10.00" fill="#000000">client use</text>
<text text-anchor="middle" x="51.2275" y="-197" font-family="Helvetica,sans-Serif" font-size="10.00" fill="#000000">Abstractor to call</text>
<text text-anchor="middle" x="51.2275" y="-185" font-family="Helvetica,sans-Serif" font-size="10.00" fill="#000000">do()</text>
</g>
<!-- A1 -->
<g id="node2" class="node">
<title>A1</title>
<polygon fill="none" stroke="#000000" points="120.4465,-180 120.4465,-220 194.0085,-220 194.0085,-180 120.4465,-180"/>
<text text-anchor="middle" x="157.2275" y="-207" font-family="Helvetica,sans-Serif" font-size="10.00" fill="#000000">Abstractor</text>
<polyline fill="none" stroke="#000000" points="120.4465,-200 194.0085,-200 "/>
<text text-anchor="middle" x="157.2275" y="-187" font-family="Helvetica,sans-Serif" font-size="10.00" fill="#000000">_impl</text>
</g>
<!-- A2 -->
<g id="node3" class="node">
<title>A2</title>
<polygon fill="none" stroke="#000000" points="115.448,-87.5 115.448,-127.5 199.007,-127.5 199.007,-87.5 115.448,-87.5"/>
<text text-anchor="middle" x="157.2275" y="-114.5" font-family="Helvetica,sans-Serif" font-size="10.00" fill="#000000">Implementor</text>
<polyline fill="none" stroke="#000000" points="115.448,-107.5 199.007,-107.5 "/>
<text text-anchor="middle" x="157.2275" y="-94.5" font-family="Helvetica,sans-Serif" font-size="10.00" fill="#000000">do()</text>
</g>
<!-- A1&#45;&gt;A2 -->
<g id="edge1" class="edge">
<title>A1&#45;&gt;A2</title>
<path fill="none" stroke="#000000" d="M157.2275,-167.7914C157.2275,-158.0645 157.2275,-147.4222 157.2275,-137.8227"/>
<polygon fill="#000000" stroke="#000000" points="157.2276,-167.9289 161.2275,-173.9289 157.2275,-179.9289 153.2275,-173.9288 157.2276,-167.9289"/>
<polygon fill="#000000" stroke="#000000" points="157.2275,-127.532 161.7276,-137.5319 157.2275,-132.532 157.2276,-137.532 157.2276,-137.532 157.2276,-137.532 157.2275,-132.532 152.7276,-137.532 157.2275,-127.532 157.2275,-127.532"/>
<text text-anchor="middle" x="165.6799" y="-142.6581" font-family="Helvetica,sans-Serif" font-size="10.00" fill="#000000">1</text>
</g>
<!-- A3 -->
<g id="node4" class="node">
<title>A3</title>
<polygon fill="none" stroke="#000000" points="59.6685,-.5 59.6685,-36.5 148.7865,-36.5 148.7865,-.5 59.6685,-.5"/>
<text text-anchor="middle" x="104.2275" y="-15.5" font-family="Helvetica,sans-Serif" font-size="10.00" fill="#000000">Implementor1</text>
</g>
<!-- A2&#45;&gt;A3 -->
<g id="edge2" class="edge">
<title>A2&#45;&gt;A3</title>
<path fill="none" stroke="#000000" d="M140.0166,-78.5987C131.765,-64.7422 122.1377,-48.5756 114.9479,-36.5021"/>
<polygon fill="none" stroke="#000000" points="137.0772,-80.5034 145.201,-87.3045 143.0916,-76.9218 137.0772,-80.5034"/>
</g>
<!-- A4 -->
<g id="node5" class="node">
<title>A4</title>
<polygon fill="none" stroke="#000000" points="166.6685,-.5 166.6685,-36.5 255.7865,-36.5 255.7865,-.5 166.6685,-.5"/>
<text text-anchor="middle" x="211.2275" y="-15.5" font-family="Helvetica,sans-Serif" font-size="10.00" fill="#000000">Implementor2</text>
</g>
<!-- A2&#45;&gt;A4 -->
<g id="edge3" class="edge">
<title>A2&#45;&gt;A4</title>
<path fill="none" stroke="#000000" d="M174.7631,-78.5987C183.1704,-64.7422 192.9794,-48.5756 200.3049,-36.5021"/>
<polygon fill="none" stroke="#000000" points="171.676,-76.9395 169.4809,-87.3045 177.6606,-80.5707 171.676,-76.9395"/>
</g>
</g>
</svg>
