<?xml version="1.0" encoding="UTF-8" standalone="no"?>
<!DOCTYPE svg PUBLIC "-//W3C//DTD SVG 1.1//EN"
 "http://www.w3.org/Graphics/SVG/1.1/DTD/svg11.dtd">
<!-- Generated by graphviz version 2.40.1 (20161225.0304)
 -->
<!-- Title: G Pages: 1 -->
<svg width="268pt" height="140pt"
 viewBox="0.00 0.00 268.37 140.00" xmlns="http://www.w3.org/2000/svg" xmlns:xlink="http://www.w3.org/1999/xlink">
<g id="graph0" class="graph" transform="scale(1 1) rotate(0) translate(4 136)">
<title>G</title>
<polygon fill="#ffffff" stroke="transparent" points="-4,4 -4,-136 264.374,-136 264.374,4 -4,4"/>
<!-- A0 -->
<g id="node1" class="node">
<title>A0</title>
<polygon fill="none" stroke="#000000" points="111.4775,-91.5 111.4775,-131.5 191.1585,-131.5 191.1585,-91.5 111.4775,-91.5"/>
<text text-anchor="middle" x="151.318" y="-118.5" font-family="Helvetica,sans-Serif" font-size="10.00" fill="#000000">Component</text>
<polyline fill="none" stroke="#000000" points="111.4775,-111.5 191.1585,-111.5 "/>
<text text-anchor="middle" x="151.318" y="-98.5" font-family="Helvetica,sans-Serif" font-size="10.00" fill="#000000">draw()</text>
</g>
<!-- A1 -->
<g id="node2" class="node">
<title>A1</title>
<polygon fill="none" stroke="#000000" points="0,-.5 0,-40.5 106.636,-40.5 106.636,-.5 0,-.5"/>
<text text-anchor="middle" x="53.318" y="-27.5" font-family="Helvetica,sans-Serif" font-size="10.00" fill="#000000">Composite</text>
<polyline fill="none" stroke="#000000" points="0,-20.5 106.636,-20.5 "/>
<text text-anchor="middle" x="53.318" y="-7.5" font-family="Helvetica,sans-Serif" font-size="10.00" fill="#000000">+add(component)</text>
</g>
<!-- A0&#45;&gt;A1 -->
<g id="edge1" class="edge">
<title>A0&#45;&gt;A1</title>
<path fill="none" stroke="#000000" d="M121.9879,-84.2649C106.8979,-70.2528 88.8237,-53.4696 75.0066,-40.6394"/>
<polygon fill="none" stroke="#000000" points="119.8591,-87.0644 129.5686,-91.3042 124.6223,-81.9348 119.8591,-87.0644"/>
</g>
<!-- A2 -->
<g id="node3" class="node">
<title>A2</title>
<polygon fill="none" stroke="#000000" points="124.318,-2.5 124.318,-38.5 178.318,-38.5 178.318,-2.5 124.318,-2.5"/>
<text text-anchor="middle" x="151.0905" y="-17.5" font-family="Helvetica,sans-Serif" font-size="10.00" fill="#000000">Circle</text>
</g>
<!-- A0&#45;&gt;A2 -->
<g id="edge2" class="edge">
<title>A0&#45;&gt;A2</title>
<path fill="none" stroke="#000000" d="M151.318,-81.1046C151.318,-67.0814 151.318,-50.899 151.318,-38.7852"/>
<polygon fill="none" stroke="#000000" points="147.8181,-81.3041 151.318,-91.3042 154.8181,-81.3042 147.8181,-81.3041"/>
</g>
<!-- A3 -->
<g id="node4" class="node">
<title>A3</title>
<polygon fill="none" stroke="#000000" points="196.262,-2.5 196.262,-38.5 260.374,-38.5 260.374,-2.5 196.262,-2.5"/>
<text text-anchor="middle" x="228.318" y="-17.5" font-family="Helvetica,sans-Serif" font-size="10.00" fill="#000000">Triangle</text>
</g>
<!-- A0&#45;&gt;A3 -->
<g id="edge3" class="edge">
<title>A0&#45;&gt;A3</title>
<path fill="none" stroke="#000000" d="M174.9633,-83.5556C187.2802,-68.9992 201.9928,-51.6116 212.8459,-38.7852"/>
<polygon fill="none" stroke="#000000" points="172.1944,-81.4095 168.4068,-91.3042 177.5381,-85.9311 172.1944,-81.4095"/>
</g>
<!-- A4 -->
<g id="node5" class="node">
<title>A4</title>
<polygon fill="none" stroke="#000000" points="26.318,-93.5 26.318,-129.5 80.318,-129.5 80.318,-93.5 26.318,-93.5"/>
<text text-anchor="middle" x="53.095" y="-108.5" font-family="Helvetica,sans-Serif" font-size="10.00" fill="#000000">Client</text>
</g>
<!-- A4&#45;&gt;A1 -->
<g id="edge4" class="edge">
<title>A4&#45;&gt;A1</title>
<path fill="none" stroke="#000000" d="M53.318,-93.0848C53.318,-81.0003 53.318,-64.9081 53.318,-50.9469"/>
<polygon fill="#000000" stroke="#000000" points="53.318,-40.7877 57.8181,-50.7877 53.318,-45.7877 53.3181,-50.7877 53.3181,-50.7877 53.3181,-50.7877 53.318,-45.7877 48.8181,-50.7877 53.318,-40.7877 53.318,-40.7877"/>
<text text-anchor="middle" x="44.8656" y="-71.9586" font-family="Helvetica,sans-Serif" font-size="10.00" fill="#000000">use</text>
</g>
</g>
</svg>
