<?xml version="1.0" encoding="UTF-8" standalone="no"?>
<!DOCTYPE svg PUBLIC "-//W3C//DTD SVG 1.1//EN"
 "http://www.w3.org/Graphics/SVG/1.1/DTD/svg11.dtd">
<!-- Generated by graphviz version 2.40.1 (20161225.0304)
 -->
<!-- Title: G Pages: 1 -->
<svg width="284pt" height="152pt"
 viewBox="0.00 0.00 284.13 152.00" xmlns="http://www.w3.org/2000/svg" xmlns:xlink="http://www.w3.org/1999/xlink">
<g id="graph0" class="graph" transform="scale(1 1) rotate(0) translate(4 148)">
<title>G</title>
<polygon fill="#ffffff" stroke="transparent" points="-4,4 -4,-148 280.1315,-148 280.1315,4 -4,4"/>
<!-- A0 -->
<g id="node1" class="node">
<title>A0</title>
<polygon fill="none" stroke="#000000" points="113.8375,-103.5 113.8375,-143.5 183.5295,-143.5 183.5295,-103.5 113.8375,-103.5"/>
<text text-anchor="middle" x="148.6835" y="-130.5" font-family="Helvetica,sans-Serif" font-size="10.00" fill="#000000">Target</text>
<polyline fill="none" stroke="#000000" points="113.8375,-123.5 183.5295,-123.5 "/>
<text text-anchor="middle" x="148.6835" y="-110.5" font-family="Helvetica,sans-Serif" font-size="10.00" fill="#000000">_adaptee</text>
</g>
<!-- A1 -->
<g id="node2" class="node">
<title>A1</title>
<polygon fill="none" stroke="#000000" points="0,-.5 0,-52.5 151.367,-52.5 151.367,-.5 0,-.5"/>
<text text-anchor="middle" x="75.6835" y="-39.5" font-family="Helvetica,sans-Serif" font-size="10.00" fill="#000000">Adapter</text>
<polyline fill="none" stroke="#000000" points="0,-32.5 151.367,-32.5 "/>
<text text-anchor="middle" x="75.6835" y="-19.5" font-family="Helvetica,sans-Serif" font-size="10.00" fill="#000000">request(): calls</text>
<text text-anchor="middle" x="75.6835" y="-7.5" font-family="Helvetica,sans-Serif" font-size="10.00" fill="#000000">_adaptee.specific_request()</text>
</g>
<!-- A0&#45;&gt;A1 -->
<g id="edge1" class="edge">
<title>A0&#45;&gt;A1</title>
<path fill="none" stroke="#000000" d="M127.2665,-95.0418C117.2255,-81.6996 105.3365,-65.902 95.5045,-52.8375"/>
<polygon fill="none" stroke="#000000" points="124.7481,-97.516 133.5579,-103.4015 130.3412,-93.3068 124.7481,-97.516"/>
</g>
<!-- A2 -->
<g id="node3" class="node">
<title>A2</title>
<polygon fill="none" stroke="#000000" points="169.2355,-6.5 169.2355,-46.5 276.1315,-46.5 276.1315,-6.5 169.2355,-6.5"/>
<text text-anchor="middle" x="222.6835" y="-33.5" font-family="Helvetica,sans-Serif" font-size="10.00" fill="#000000">Adaptee</text>
<polyline fill="none" stroke="#000000" points="169.2355,-26.5 276.1315,-26.5 "/>
<text text-anchor="middle" x="222.6835" y="-13.5" font-family="Helvetica,sans-Serif" font-size="10.00" fill="#000000">specific_request()</text>
</g>
<!-- A0&#45;&gt;A2 -->
<g id="edge2" class="edge">
<title>A0&#45;&gt;A2</title>
<path fill="none" stroke="#000000" d="M171.3109,-93.8398C180.8088,-81.3898 191.8028,-66.9788 201.1773,-54.6906"/>
<polygon fill="#000000" stroke="#000000" points="171.2948,-93.8609 170.8358,-101.0574 164.0163,-103.4015 164.4754,-96.205 171.2948,-93.8609"/>
<polygon fill="#000000" stroke="#000000" points="207.3703,-46.5727 204.8826,-57.2527 204.3376,-50.548 201.3049,-54.5233 201.3049,-54.5233 201.3049,-54.5233 204.3376,-50.548 197.7271,-51.7939 207.3703,-46.5727 207.3703,-46.5727"/>
<text text-anchor="middle" x="203.0962" y="-63.1107" font-family="Helvetica,sans-Serif" font-size="10.00" fill="#000000">1</text>
</g>
</g>
</svg>
