<?xml version="1.0" encoding="UTF-8" standalone="no"?>
<!DOCTYPE svg PUBLIC "-//W3C//DTD SVG 1.1//EN"
 "http://www.w3.org/Graphics/SVG/1.1/DTD/svg11.dtd">
<!-- Generated by graphviz version 2.40.1 (20161225.0304)
 -->
<!-- Title: G Pages: 1 -->
<svg width="121pt" height="346pt"
 viewBox="0.00 0.00 121.01 346.00" xmlns="http://www.w3.org/2000/svg" xmlns:xlink="http://www.w3.org/1999/xlink">
<g id="graph0" class="graph" transform="scale(1 1) rotate(0) translate(4 342)">
<title>G</title>
<polygon fill="#ffffff" stroke="transparent" points="-4,4 -4,-342 117.005,-342 117.005,4 -4,4"/>
<!-- A0 -->
<g id="node1" class="node">
<title>A0</title>
<polygon fill="none" stroke="#000000" points="20.2815,-103.5 20.2815,-139.5 92.7235,-139.5 92.7235,-103.5 20.2815,-103.5"/>
<text text-anchor="middle" x="56.5025" y="-118.5" font-family="Helvetica,sans-Serif" font-size="10.00" fill="#000000">FlyWeight</text>
</g>
<!-- A1 -->
<g id="node2" class="node">
<title>A1</title>
<polygon fill="none" stroke="#000000" points="0,-.5 0,-52.5 113.005,-52.5 113.005,-.5 0,-.5"/>
<text text-anchor="middle" x="56.5025" y="-39.5" font-family="Helvetica,sans-Serif" font-size="10.00" fill="#000000">ConcreteFlyWeight</text>
<polyline fill="none" stroke="#000000" points="0,-32.5 113.005,-32.5 "/>
<text text-anchor="middle" x="56.5025" y="-19.5" font-family="Helvetica,sans-Serif" font-size="10.00" fill="#000000">+_instrinsic_state</text>
<text text-anchor="middle" x="56.5025" y="-7.5" font-family="Helvetica,sans-Serif" font-size="10.00" fill="#000000">+_extrinsic_state</text>
</g>
<!-- A0&#45;&gt;A1 -->
<g id="edge1" class="edge">
<title>A0&#45;&gt;A1</title>
<path fill="none" stroke="#000000" d="M56.5025,-93.0426C56.5025,-80.2268 56.5025,-65.1947 56.5025,-52.6634"/>
<polygon fill="none" stroke="#000000" points="53.0026,-93.183 56.5025,-103.183 60.0026,-93.1831 53.0026,-93.183"/>
</g>
<!-- A2 -->
<g id="node3" class="node">
<title>A2</title>
<polygon fill="none" stroke="#000000" points="29.5025,-301.5 29.5025,-337.5 83.5025,-337.5 83.5025,-301.5 29.5025,-301.5"/>
<text text-anchor="middle" x="56.17" y="-316.5" font-family="Helvetica,sans-Serif" font-size="10.00" fill="#000000">client</text>
</g>
<!-- A3 -->
<g id="node4" class="node">
<title>A3</title>
<polygon fill="none" stroke="#000000" points="7.909,-190.5 7.909,-250.5 105.096,-250.5 105.096,-190.5 7.909,-190.5"/>
<text text-anchor="middle" x="56.5025" y="-237.5" font-family="Helvetica,sans-Serif" font-size="10.00" fill="#000000">Factory</text>
<polyline fill="none" stroke="#000000" points="7.909,-230.5 105.096,-230.5 "/>
<text text-anchor="middle" x="56.5025" y="-217.5" font-family="Helvetica,sans-Serif" font-size="10.00" fill="#000000">+_flyweights</text>
<polyline fill="none" stroke="#000000" points="7.909,-210.5 105.096,-210.5 "/>
<text text-anchor="middle" x="56.5025" y="-197.5" font-family="Helvetica,sans-Serif" font-size="10.00" fill="#000000">+get_flyweights</text>
</g>
<!-- A2&#45;&gt;A3 -->
<g id="edge2" class="edge">
<title>A2&#45;&gt;A3</title>
<path fill="none" stroke="#000000" d="M56.5025,-301.3419C56.5025,-289.9325 56.5025,-274.7494 56.5025,-260.6236"/>
<polygon fill="#000000" stroke="#000000" points="56.5025,-250.5939 61.0026,-260.5938 56.5025,-255.5939 56.5026,-260.5939 56.5026,-260.5939 56.5026,-260.5939 56.5025,-255.5939 52.0026,-260.5939 56.5025,-250.5939 56.5025,-250.5939"/>
</g>
<!-- A3&#45;&gt;A0 -->
<g id="edge3" class="edge">
<title>A3&#45;&gt;A0</title>
<path fill="none" stroke="#000000" d="M56.5025,-178.2246C56.5025,-168.6593 56.5025,-158.7262 56.5025,-149.8956"/>
<polygon fill="#000000" stroke="#000000" points="56.5026,-178.2588 60.5025,-184.2588 56.5025,-190.2588 52.5025,-184.2588 56.5026,-178.2588"/>
<polygon fill="#000000" stroke="#000000" points="56.5025,-139.7699 61.0026,-149.7698 56.5025,-144.7699 56.5026,-149.7699 56.5026,-149.7699 56.5026,-149.7699 56.5025,-144.7699 52.0026,-149.7699 56.5025,-139.7699 56.5025,-139.7699"/>
<text text-anchor="middle" x="64.9549" y="-154.896" font-family="Helvetica,sans-Serif" font-size="10.00" fill="#000000">n</text>
</g>
</g>
</svg>
