<?xml version="1.0" encoding="UTF-8" standalone="no"?>
<!DOCTYPE svg PUBLIC "-//W3C//DTD SVG 1.1//EN"
 "http://www.w3.org/Graphics/SVG/1.1/DTD/svg11.dtd">
<!-- Generated by graphviz version 2.40.1 (20161225.0304)
 -->
<!-- Title: G Pages: 1 -->
<svg width="196pt" height="132pt"
 viewBox="0.00 0.00 195.68 132.00" xmlns="http://www.w3.org/2000/svg" xmlns:xlink="http://www.w3.org/1999/xlink">
<g id="graph0" class="graph" transform="scale(1 1) rotate(0) translate(4 128)">
<title>G</title>
<polygon fill="#ffffff" stroke="transparent" points="-4,4 -4,-128 191.682,-128 191.682,4 -4,4"/>
<!-- A0 -->
<g id="node1" class="node">
<title>A0</title>
<polygon fill="none" stroke="#000000" points="62.6685,-87.5 62.6685,-123.5 124.0135,-123.5 124.0135,-87.5 62.6685,-87.5"/>
<text text-anchor="middle" x="93.341" y="-102.5" font-family="Helvetica,sans-Serif" font-size="10.00" fill="#000000">Facade</text>
</g>
<!-- A1 -->
<g id="node2" class="node">
<title>A1</title>
<polygon fill="none" stroke="#000000" points="0,-.5 0,-36.5 84.682,-36.5 84.682,-.5 0,-.5"/>
<text text-anchor="middle" x="42.341" y="-15.5" font-family="Helvetica,sans-Serif" font-size="10.00" fill="#000000">SubSystem1</text>
</g>
<!-- A0&#45;&gt;A1 -->
<g id="edge1" class="edge">
<title>A0&#45;&gt;A1</title>
<path fill="none" stroke="#000000" d="M76.5853,-76.9168C70.609,-66.7219 63.9036,-55.2833 58.0211,-45.2484"/>
<polygon fill="#000000" stroke="#000000" points="76.7051,-77.1212 83.1902,-80.2745 82.7738,-87.4735 76.2886,-84.3202 76.7051,-77.1212"/>
<polygon fill="#000000" stroke="#000000" points="52.8947,-36.5034 61.8341,-42.8546 55.4233,-40.8169 57.9519,-45.1304 57.9519,-45.1304 57.9519,-45.1304 55.4233,-40.8169 54.0698,-47.4061 52.8947,-36.5034 52.8947,-36.5034"/>
<text text-anchor="middle" x="69.3533" y="-44.8662" font-family="Helvetica,sans-Serif" font-size="10.00" fill="#000000">1</text>
</g>
<!-- A2 -->
<g id="node3" class="node">
<title>A2</title>
<polygon fill="none" stroke="#000000" points="103,-.5 103,-36.5 187.682,-36.5 187.682,-.5 103,-.5"/>
<text text-anchor="middle" x="145.341" y="-15.5" font-family="Helvetica,sans-Serif" font-size="10.00" fill="#000000">SubSystem2</text>
</g>
<!-- A0&#45;&gt;A2 -->
<g id="edge2" class="edge">
<title>A0&#45;&gt;A2</title>
<path fill="none" stroke="#000000" d="M110.4252,-76.9168C116.5187,-66.7219 123.3556,-55.2833 129.3534,-45.2484"/>
<polygon fill="#000000" stroke="#000000" points="110.272,-77.1732 110.6272,-84.3756 104.1154,-87.4735 103.7603,-80.2712 110.272,-77.1732"/>
<polygon fill="#000000" stroke="#000000" points="134.5804,-36.5034 133.3125,-47.3957 132.0151,-40.7952 129.4499,-45.087 129.4499,-45.087 129.4499,-45.087 132.0151,-40.7952 125.5872,-42.7783 134.5804,-36.5034 134.5804,-36.5034"/>
<text text-anchor="middle" x="132.536" y="-53.3986" font-family="Helvetica,sans-Serif" font-size="10.00" fill="#000000">1</text>
</g>
</g>
</svg>
