<?xml version="1.0" encoding="UTF-8" standalone="no"?>
<!DOCTYPE svg PUBLIC "-//W3C//DTD SVG 1.1//EN"
 "http://www.w3.org/Graphics/SVG/1.1/DTD/svg11.dtd">
<!-- Generated by graphviz version 2.40.1 (20161225.0304)
 -->
<!-- Title: G Pages: 1 -->
<svg width="363pt" height="230pt"
 viewBox="0.00 0.00 363.13 230.00" xmlns="http://www.w3.org/2000/svg" xmlns:xlink="http://www.w3.org/1999/xlink">
<g id="graph0" class="graph" transform="scale(1 1) rotate(0) translate(4 226)">
<title>G</title>
<polygon fill="#ffffff" stroke="transparent" points="-4,4 -4,-226 359.135,-226 359.135,4 -4,4"/>
<!-- A0 -->
<g id="node1" class="node">
<title>A0</title>
<polygon fill="none" stroke="#000000" points="147.1665,-180 147.1665,-220 226.8475,-220 226.8475,-180 147.1665,-180"/>
<text text-anchor="middle" x="187.007" y="-207" font-family="Helvetica,sans-Serif" font-size="10.00" fill="#000000">Component</text>
<polyline fill="none" stroke="#000000" points="147.1665,-200 226.8475,-200 "/>
<text text-anchor="middle" x="187.007" y="-187" font-family="Helvetica,sans-Serif" font-size="10.00" fill="#000000">operate()</text>
</g>
<!-- A1 -->
<g id="node2" class="node">
<title>A1</title>
<polygon fill="none" stroke="#000000" points="85.4965,-87.5 85.4965,-127.5 168.5175,-127.5 168.5175,-87.5 85.4965,-87.5"/>
<text text-anchor="middle" x="127.007" y="-114.5" font-family="Helvetica,sans-Serif" font-size="10.00" fill="#000000">Decorator</text>
<polyline fill="none" stroke="#000000" points="85.4965,-107.5 168.5175,-107.5 "/>
<text text-anchor="middle" x="127.007" y="-94.5" font-family="Helvetica,sans-Serif" font-size="10.00" fill="#000000">_component</text>
</g>
<!-- A0&#45;&gt;A1 -->
<g id="edge1" class="edge">
<title>A0&#45;&gt;A1</title>
<path fill="none" stroke="#000000" d="M168.5004,-171.4689C159.2701,-157.2389 148.3297,-140.3724 140.0007,-127.532"/>
<polygon fill="none" stroke="#000000" points="165.6096,-173.4439 173.9879,-179.9289 171.4823,-169.6346 165.6096,-173.4439"/>
</g>
<!-- A4 -->
<g id="node5" class="node">
<title>A4</title>
<polygon fill="none" stroke="#000000" points="186.885,-89.5 186.885,-125.5 307.129,-125.5 307.129,-89.5 186.885,-89.5"/>
<text text-anchor="middle" x="247.007" y="-104.5" font-family="Helvetica,sans-Serif" font-size="10.00" fill="#000000">ConcreteComponent</text>
</g>
<!-- A0&#45;&gt;A4 -->
<g id="edge4" class="edge">
<title>A0&#45;&gt;A4</title>
<path fill="none" stroke="#000000" d="M205.4779,-171.5241C215.1735,-156.5767 226.764,-138.708 235.2335,-125.6509"/>
<polygon fill="none" stroke="#000000" points="202.5317,-169.6346 200.0261,-179.9289 208.4044,-173.4439 202.5317,-169.6346"/>
</g>
<!-- A2 -->
<g id="node3" class="node">
<title>A2</title>
<polygon fill="none" stroke="#000000" points="0,-.5 0,-36.5 118.014,-36.5 118.014,-.5 0,-.5"/>
<text text-anchor="middle" x="59.007" y="-15.5" font-family="Helvetica,sans-Serif" font-size="10.00" fill="#000000">ConcreteDecorator1</text>
</g>
<!-- A1&#45;&gt;A2 -->
<g id="edge2" class="edge">
<title>A1&#45;&gt;A2</title>
<path fill="none" stroke="#000000" d="M105.2271,-78.9939C94.5737,-65.0505 82.074,-48.6906 72.7614,-36.5021"/>
<polygon fill="none" stroke="#000000" points="102.7244,-81.4833 111.5767,-87.3045 108.2867,-77.2335 102.7244,-81.4833"/>
</g>
<!-- A3 -->
<g id="node4" class="node">
<title>A3</title>
<polygon fill="none" stroke="#000000" points="136,-.5 136,-36.5 254.014,-36.5 254.014,-.5 136,-.5"/>
<text text-anchor="middle" x="195.007" y="-15.5" font-family="Helvetica,sans-Serif" font-size="10.00" fill="#000000">ConcreteDecorator2</text>
</g>
<!-- A1&#45;&gt;A3 -->
<g id="edge3" class="edge">
<title>A1&#45;&gt;A3</title>
<path fill="none" stroke="#000000" d="M148.7869,-78.9939C159.4403,-65.0505 171.94,-48.6906 181.2526,-36.5021"/>
<polygon fill="none" stroke="#000000" points="145.7273,-77.2335 142.4373,-87.3045 151.2896,-81.4833 145.7273,-77.2335"/>
</g>
<!-- A5 -->
<g id="node6" class="node">
<title>A5</title>
<polygon fill="#fff8dc" stroke="#000000" points="349.2633,-222 244.7507,-222 244.7507,-178 355.2633,-178 355.2633,-216 349.2633,-222"/>
<polyline fill="none" stroke="#000000" points="349.2633,-222 349.2633,-216 "/>
<polyline fill="none" stroke="#000000" points="355.2633,-216 349.2633,-216 "/>
<text text-anchor="middle" x="300.007" y="-209" font-family="Helvetica,sans-Serif" font-size="10.00" fill="#000000">add function to</text>
<text text-anchor="middle" x="300.007" y="-197" font-family="Helvetica,sans-Serif" font-size="10.00" fill="#000000">component by add</text>
<text text-anchor="middle" x="300.007" y="-185" font-family="Helvetica,sans-Serif" font-size="10.00" fill="#000000">decorators</text>
</g>
</g>
</svg>
