<?xml version="1.0" encoding="UTF-8" standalone="no"?>
<!DOCTYPE svg PUBLIC "-//W3C//DTD SVG 1.1//EN"
 "http://www.w3.org/Graphics/SVG/1.1/DTD/svg11.dtd">
<!-- Generated by graphviz version 2.40.1 (20161225.0304)
 -->
<!-- Title: G Pages: 1 -->
<svg width="164pt" height="156pt"
 viewBox="0.00 0.00 163.56 156.00" xmlns="http://www.w3.org/2000/svg" xmlns:xlink="http://www.w3.org/1999/xlink">
<g id="graph0" class="graph" transform="scale(1 1) rotate(0) translate(4 152)">
<title>G</title>
<polygon fill="#ffffff" stroke="transparent" points="-4,4 -4,-152 159.562,-152 159.562,4 -4,4"/>
<!-- A0 -->
<g id="node1" class="node">
<title>A0</title>
<polygon fill="none" stroke="#000000" points="22.574,-87.5 22.574,-147.5 131.988,-147.5 131.988,-87.5 22.574,-87.5"/>
<text text-anchor="middle" x="77.281" y="-134.5" font-family="Helvetica,sans-Serif" font-size="10.00" fill="#000000">Handler</text>
<polyline fill="none" stroke="#000000" points="22.574,-127.5 131.988,-127.5 "/>
<text text-anchor="middle" x="77.281" y="-114.5" font-family="Helvetica,sans-Serif" font-size="10.00" fill="#000000">&#45;successor</text>
<polyline fill="none" stroke="#000000" points="22.574,-107.5 131.988,-107.5 "/>
<text text-anchor="middle" x="77.281" y="-94.5" font-family="Helvetica,sans-Serif" font-size="10.00" fill="#000000">+handle_request()</text>
</g>
<!-- A1 -->
<g id="node2" class="node">
<title>A1</title>
<polygon fill="none" stroke="#000000" points="0,-.5 0,-36.5 68.562,-36.5 68.562,-.5 0,-.5"/>
<text text-anchor="middle" x="34.281" y="-15.5" font-family="Helvetica,sans-Serif" font-size="10.00" fill="#000000">Handler1</text>
</g>
<!-- A0&#45;&gt;A1 -->
<g id="edge1" class="edge">
<title>A0&#45;&gt;A1</title>
<path fill="none" stroke="#000000" d="M59.9884,-77.6867C53.8349,-63.5194 47.2028,-48.2503 42.2164,-36.7699"/>
<polygon fill="none" stroke="#000000" points="56.9517,-79.481 64.1459,-87.2588 63.3723,-76.6922 56.9517,-79.481"/>
</g>
<!-- A2 -->
<g id="node3" class="node">
<title>A2</title>
<polygon fill="none" stroke="#000000" points="87,-.5 87,-36.5 155.562,-36.5 155.562,-.5 87,-.5"/>
<text text-anchor="middle" x="121.281" y="-15.5" font-family="Helvetica,sans-Serif" font-size="10.00" fill="#000000">Handler2</text>
</g>
<!-- A0&#45;&gt;A2 -->
<g id="edge2" class="edge">
<title>A0&#45;&gt;A2</title>
<path fill="none" stroke="#000000" d="M94.7943,-78.0951C101.1417,-63.8134 108.0096,-48.3607 113.161,-36.7699"/>
<polygon fill="none" stroke="#000000" points="91.5846,-76.6992 90.7215,-87.2588 97.9813,-79.5422 91.5846,-76.6992"/>
</g>
</g>
</svg>
