<?xml version="1.0" encoding="UTF-8" standalone="no"?>
<!DOCTYPE svg PUBLIC "-//W3C//DTD SVG 1.1//EN"
 "http://www.w3.org/Graphics/SVG/1.1/DTD/svg11.dtd">
<!-- Generated by graphviz version 2.40.1 (20161225.0304)
 -->
<!-- Title: G Pages: 1 -->
<svg width="633pt" height="184pt"
 viewBox="0.00 0.00 632.78 184.00" xmlns="http://www.w3.org/2000/svg" xmlns:xlink="http://www.w3.org/1999/xlink">
<g id="graph0" class="graph" transform="scale(1 1) rotate(0) translate(4 180)">
<title>G</title>
<polygon fill="#ffffff" stroke="transparent" points="-4,4 -4,-180 628.7815,-180 628.7815,4 -4,4"/>
<!-- A0 -->
<g id="node1" class="node">
<title>A0</title>
<polygon fill="none" stroke="#000000" points="142.947,-109.5 142.947,-169.5 217.06,-169.5 217.06,-109.5 142.947,-109.5"/>
<text text-anchor="middle" x="180.0035" y="-156.5" font-family="Helvetica,sans-Serif" font-size="10.00" fill="#000000">Command</text>
<polyline fill="none" stroke="#000000" points="142.947,-149.5 217.06,-149.5 "/>
<text text-anchor="middle" x="180.0035" y="-136.5" font-family="Helvetica,sans-Serif" font-size="10.00" fill="#000000">Light</text>
<polyline fill="none" stroke="#000000" points="142.947,-129.5 217.06,-129.5 "/>
<text text-anchor="middle" x="180.0035" y="-116.5" font-family="Helvetica,sans-Serif" font-size="10.00" fill="#000000">+execute</text>
</g>
<!-- A1 -->
<g id="node2" class="node">
<title>A1</title>
<polygon fill="none" stroke="#000000" points="0,-8.5 0,-44.5 108.007,-44.5 108.007,-8.5 0,-8.5"/>
<text text-anchor="middle" x="54.0035" y="-23.5" font-family="Helvetica,sans-Serif" font-size="10.00" fill="#000000">TurnOnCommand</text>
</g>
<!-- A0&#45;&gt;A1 -->
<g id="edge1" class="edge">
<title>A0&#45;&gt;A1</title>
<path fill="none" stroke="#000000" d="M138.7458,-102.499C117.0455,-83.0377 91.4226,-60.0584 74.0774,-44.5028"/>
<polygon fill="none" stroke="#000000" points="136.4563,-105.1471 146.2378,-109.2181 141.1299,-99.9358 136.4563,-105.1471"/>
</g>
<!-- A2 -->
<g id="node3" class="node">
<title>A2</title>
<polygon fill="none" stroke="#000000" points="126.0005,-8.5 126.0005,-44.5 234.0065,-44.5 234.0065,-8.5 126.0005,-8.5"/>
<text text-anchor="middle" x="180.0035" y="-23.5" font-family="Helvetica,sans-Serif" font-size="10.00" fill="#000000">TurnOffCommand</text>
</g>
<!-- A0&#45;&gt;A2 -->
<g id="edge2" class="edge">
<title>A0&#45;&gt;A2</title>
<path fill="none" stroke="#000000" d="M180.0035,-99.1526C180.0035,-80.4526 180.0035,-59.1753 180.0035,-44.5028"/>
<polygon fill="none" stroke="#000000" points="176.5036,-99.218 180.0035,-109.2181 183.5036,-99.2181 176.5036,-99.218"/>
</g>
<!-- A3 -->
<g id="node4" class="node">
<title>A3</title>
<polygon fill="none" stroke="#000000" points="251.583,-.5 251.583,-52.5 320.424,-52.5 320.424,-.5 251.583,-.5"/>
<text text-anchor="middle" x="286.0035" y="-39.5" font-family="Helvetica,sans-Serif" font-size="10.00" fill="#000000">Light</text>
<polyline fill="none" stroke="#000000" points="251.583,-32.5 320.424,-32.5 "/>
<text text-anchor="middle" x="286.0035" y="-19.5" font-family="Helvetica,sans-Serif" font-size="10.00" fill="#000000">+turnon()</text>
<text text-anchor="middle" x="286.0035" y="-7.5" font-family="Helvetica,sans-Serif" font-size="10.00" fill="#000000">+turnoff()</text>
</g>
<!-- A0&#45;&gt;A3 -->
<g id="edge3" class="edge">
<title>A0&#45;&gt;A3</title>
<path fill="none" stroke="#000000" d="M216.8519,-100.2182C229.0822,-87.1802 242.5813,-72.7897 254.3817,-60.21"/>
<polygon fill="none" stroke="#000000" points="216.6195,-100.466 215.4319,-107.5787 208.4096,-109.2181 209.5972,-102.1054 216.6195,-100.466"/>
<polygon fill="#000000" stroke="#000000" points="261.4831,-52.6396 257.9236,-63.0117 258.0624,-56.2863 254.6416,-59.933 254.6416,-59.933 254.6416,-59.933 258.0624,-56.2863 251.3595,-56.8543 261.4831,-52.6396 261.4831,-52.6396"/>
</g>
<!-- A4 -->
<g id="node5" class="node">
<title>A4</title>
<polygon fill="none" stroke="#000000" points="235.2475,-119.5 235.2475,-159.5 310.7595,-159.5 310.7595,-119.5 235.2475,-119.5"/>
<text text-anchor="middle" x="273.0035" y="-146.5" font-family="Helvetica,sans-Serif" font-size="10.00" fill="#000000">Switch</text>
<polyline fill="none" stroke="#000000" points="235.2475,-139.5 310.7595,-139.5 "/>
<text text-anchor="middle" x="273.0035" y="-126.5" font-family="Helvetica,sans-Serif" font-size="10.00" fill="#000000">+execute()</text>
</g>
<!-- A5 -->
<g id="node6" class="node">
<title>A5</title>
<polygon fill="none" stroke="#000000" points="328.6665,-103.5 328.6665,-175.5 433.3405,-175.5 433.3405,-103.5 328.6665,-103.5"/>
<text text-anchor="middle" x="381.0035" y="-162.5" font-family="Helvetica,sans-Serif" font-size="10.00" fill="#000000">LightSwitchClient</text>
<polyline fill="none" stroke="#000000" points="328.6665,-155.5 433.3405,-155.5 "/>
<text text-anchor="middle" x="381.0035" y="-142.5" font-family="Helvetica,sans-Serif" font-size="10.00" fill="#000000">&#45;Light</text>
<text text-anchor="middle" x="381.0035" y="-130.5" font-family="Helvetica,sans-Serif" font-size="10.00" fill="#000000">&#45;Switch</text>
<polyline fill="none" stroke="#000000" points="328.6665,-123.5 433.3405,-123.5 "/>
<text text-anchor="middle" x="381.0035" y="-110.5" font-family="Helvetica,sans-Serif" font-size="10.00" fill="#000000">+press()</text>
</g>
<!-- A6 -->
<g id="node7" class="node">
<title>A6</title>
<polygon fill="#fff8dc" stroke="#000000" points="618.5601,-157.5 451.4469,-157.5 451.4469,-121.5 624.5601,-121.5 624.5601,-151.5 618.5601,-157.5"/>
<polyline fill="none" stroke="#000000" points="618.5601,-157.5 618.5601,-151.5 "/>
<polyline fill="none" stroke="#000000" points="624.5601,-151.5 618.5601,-151.5 "/>
<text text-anchor="middle" x="538.0035" y="-142.5" font-family="Helvetica,sans-Serif" font-size="10.00" fill="#000000">press(cmd): call</text>
<text text-anchor="middle" x="538.0035" y="-130.5" font-family="Helvetica,sans-Serif" font-size="10.00" fill="#000000">Switch.execute(Command(cmd))</text>
</g>
</g>
</svg>
